<svg xmlns="http://www.w3.org/2000/svg" width="768" height="768.057" viewBox="0 0 720 720.053"><g transform="translate(810.744 -103.278)"><path d="M-450.744 103.278a360 360.225 0 0 0-360 360.224A360 360.225 0 0 0-656.223 759.13c.428-2.646.847-5.295 1.361-7.908.73-3.707 1.548-7.381 2.45-11.019.572-2.31 1.19-4.597 1.83-6.877a232.662 232.662 0 0 0-3.864 16.447c-.514 2.613-.933 5.262-1.36 7.908a360 360.225 0 0 0 205.478 64.597 360 360.225 0 0 0 224.789-79.025c.07.327.142.654.217.98A360 360.225 0 0 0-90.744 463.501a360 360.225 0 0 0-360-360.224Z" style="fill:red;fill-rule:evenodd;stroke:none;stroke-width:1px;stroke-linecap:butt;stroke-linejoin:miter;stroke-opacity:1"/><ellipse cx="-450.744" cy="448.303" rx="168.571" ry="162.857" style="fill:#1a1a1a;fill-opacity:1;fill-rule:evenodd;stroke:none;stroke-width:1px;stroke-linecap:butt;stroke-linejoin:miter;stroke-opacity:1"/><path d="M-530.678 815.784c-12.005-2.684-32.68-8.732-45.946-13.44-24.533-8.707-75.778-34.809-87.284-44.459-6.246-5.238-6.262-5.547-1.098-22.213 18.128-58.513 63.63-108.343 122.007-133.614 35.344-15.3 60.364-19.848 100.025-18.18 76.03 3.195 141.372 41.763 181.429 107.087 10.85 17.696 24.773 53.793 24.514 63.56-.108 4.062-6.049 9.276-19.668 17.26-44.208 25.914-95.475 43.5-145.192 49.803-31.021 3.934-98.912.874-128.787-5.804z" style="fill:#1a1a1a;fill-opacity:1"/><rect width="384.714" height="36.957" x="-173.644" y="851.853" ry="18.479" style="fill:#1a1a1a;fill-opacity:1" transform="matrix(.76357 .64573 -.65192 .75829 0 0)"/><rect width="247.273" height="122.182" x="-574.381" y="389.914" ry="45.758" style="fill:#fbecd6;fill-opacity:1"/><ellipse cx="-498.295" cy="452.459" rx="18.909" ry="23.273" style="fill:#1a1a1a;fill-opacity:1"/><ellipse cx="-405.204" cy="452.459" rx="18.909" ry="23.273" style="fill:#1a1a1a;fill-opacity:1"/></g></svg>